<svg width="24" height="24" viewBox="0 0 24 24" fill="none" xmlns="http://www.w3.org/2000/svg">
<g clip-path="url(#clip0_4418_3609)">
<path d="M17.3699 10.1694L18.7099 8.74944C20.1299 7.24944 20.7699 5.53944 18.5599 3.44944C16.3499 1.36944 14.6799 2.09944 13.2599 3.59944L5.04985 12.2894C4.73985 12.6194 4.43985 13.2694 4.37985 13.7194L4.00985 16.9594C3.87985 18.1294 4.71985 18.9294 5.87985 18.7294L9.09985 18.1794C9.54985 18.0994 10.1799 17.7694 10.4899 17.4294L14.4399 13.2494" stroke="#335ff9" stroke-width="1.5" stroke-miterlimit="10" stroke-linecap="round" stroke-linejoin="round"/>
<path d="M11.8901 5.05078C12.3201 7.81078 14.5601 9.92078 17.3401 10.2008" stroke="#335ff9" stroke-width="1.5" stroke-miterlimit="10" stroke-linecap="round" stroke-linejoin="round"/>
<path d="M3 22H14" stroke="#335ff9" stroke-width="1.5" stroke-miterlimit="10" stroke-linecap="round" stroke-linejoin="round"/>
<path d="M18 22H21" stroke="#335ff9" stroke-width="1.5" stroke-miterlimit="10" stroke-linecap="round" stroke-linejoin="round"/>
</g>
<defs>
<clipPath id="clip0_4418_3609">
<rect width="24" height="24" fill="none"/>
</clipPath>
</defs>
</svg>