<svg width="24" height="24" viewBox="0 0 24 24" fill="none" xmlns="http://www.w3.org/2000/svg">
<g clip-path="url(#clip0_4418_3556)">
<path d="M4.75016 13.9709C4.61016 15.6009 5.90015 17.0009 7.54015 17.0009H18.1902C19.6302 17.0009 20.8902 15.8209 21.0002 14.3909L21.5401 6.89087C21.6601 5.23087 20.4002 3.88086 18.7302 3.88086H5.82016" stroke="#fff" stroke-width="1.5" stroke-miterlimit="10" stroke-linecap="round" stroke-linejoin="round"/>
<path d="M2 2H3.74001C4.82001 2 5.67 2.93 5.58 4L5.08 10.05" stroke="#fff" stroke-width="1.5" stroke-miterlimit="10" stroke-linecap="round" stroke-linejoin="round"/>
<path d="M16.25 22C16.9404 22 17.5 21.4404 17.5 20.75C17.5 20.0596 16.9404 19.5 16.25 19.5C15.5596 19.5 15 20.0596 15 20.75C15 21.4404 15.5596 22 16.25 22Z" stroke="#fff" stroke-width="1.5" stroke-miterlimit="10" stroke-linecap="round" stroke-linejoin="round"/>
<path d="M8.25 22C8.94036 22 9.5 21.4404 9.5 20.75C9.5 20.0596 8.94036 19.5 8.25 19.5C7.55964 19.5 7 20.0596 7 20.75C7 21.4404 7.55964 22 8.25 22Z" stroke="#fff" stroke-width="1.5" stroke-miterlimit="10" stroke-linecap="round" stroke-linejoin="round"/>
<path d="M9 8H21" stroke="#fff" stroke-width="1.5" stroke-miterlimit="10" stroke-linecap="round" stroke-linejoin="round"/>
</g>
<defs>
<clipPath id="clip0_4418_3556">
<rect width="24" height="24" fill="none"/>
</clipPath>
</defs>
</svg>