<svg width="24" height="24" viewBox="0 0 24 24" fill="none" xmlns="http://www.w3.org/2000/svg">
<g clip-path="url(#clip0_3111_32648)">
<path d="M21 8.95V15.88C21 17.52 19.66 18.85 18 18.85H17.24C16.44 18.85 15.68 19.16 15.12 19.72L13.41 21.41C12.63 22.18 11.36 22.18 10.58 21.41L8.87 19.72C8.31 19.16 7.54 18.85 6.75 18.85H6C4.34 18.85 3 17.52 3 15.88V4.97C3 3.33 4.34 2 6 2H18C19.66 2 21 3.33 21 4.97" stroke="#fff" stroke-width="1.5" stroke-miterlimit="10" stroke-linecap="round" stroke-linejoin="round"/>
<path d="M12.07 8.9498C12.03 8.9498 11.97 8.9498 11.92 8.9498C10.87 8.9098 10.04 8.0598 10.04 6.9998C10.04 5.9198 10.91 5.0498 11.99 5.0498C13.07 5.0498 13.94 5.9298 13.94 6.9998C13.95 8.0598 13.12 8.9198 12.07 8.9498Z" stroke="#fff" stroke-width="1.5" stroke-linecap="round" stroke-linejoin="round"/>
<path d="M9.25 15.1896C10.76 16.1996 13.24 16.1996 14.75 15.1896C16.08 14.2996 16.08 12.8496 14.75 11.9596C13.24 10.9496 10.76 10.9496 9.25 11.9596" stroke="#fff" stroke-width="1.5" stroke-linecap="round" stroke-linejoin="round"/>
</g>
<defs>
<clipPath id="clip0_3111_32648">
<rect width="24" height="24" fill="none"/>
</clipPath>
</defs>
</svg>